<svg width="46" height="46" viewBox="0 0 46 46" fill="none" xmlns="http://www.w3.org/2000/svg">
<g filter="url(#filter0_d_68_3)">
<path d="M43 22C43 33.0457 34.0457 42 23 42C11.9543 42 3 33.0457 3 22C3 10.9543 11.9543 2 23 2C34.0457 2 43 10.9543 43 22Z" fill="#646D4A"/>
<path d="M36 32C36 37.5228 30.1797 42 23 42C15.8203 42 10 37.5228 10 32C10 26.4772 15.8203 22 23 22C30.1797 22 36 26.4772 36 32Z" fill="#E6E6E6"/>
<path d="M31 20C31 24.4183 27.4183 28 23 28C18.5817 28 15 24.4183 15 20C15 15.5817 18.5817 12 23 12C27.4183 12 31 15.5817 31 20Z" fill="white"/>
<path d="M23 42C34.0457 42 43 33.0457 43 22C43 10.9543 34.0457 2 23 2C11.9543 2 3 10.9543 3 22C3 33.0457 11.9543 42 23 42ZM23 42C30.1797 42 36 37.5228 36 32C36 26.4772 30.1797 22 23 22C15.8203 22 10 26.4772 10 32C10 37.5228 15.8203 42 23 42ZM31 20C31 24.4183 27.4183 28 23 28C18.5817 28 15 24.4183 15 20C15 15.5817 18.5817 12 23 12C27.4183 12 31 15.5817 31 20Z" stroke="white" stroke-width="2"/>
</g>
<defs>
<filter id="filter0_d_68_3" x="0" y="0" width="46" height="46" filterUnits="userSpaceOnUse" color-interpolation-filters="sRGB">
<feFlood flood-opacity="0" result="BackgroundImageFix"/>
<feColorMatrix in="SourceAlpha" type="matrix" values="0 0 0 0 0 0 0 0 0 0 0 0 0 0 0 0 0 0 127 0" result="hardAlpha"/>
<feOffset dy="1"/>
<feGaussianBlur stdDeviation="1"/>
<feComposite in2="hardAlpha" operator="out"/>
<feColorMatrix type="matrix" values="0 0 0 0 0 0 0 0 0 0 0 0 0 0 0 0 0 0 0.25 0"/>
<feBlend mode="normal" in2="BackgroundImageFix" result="effect1_dropShadow_68_3"/>
<feBlend mode="normal" in="SourceGraphic" in2="effect1_dropShadow_68_3" result="shape"/>
</filter>
</defs>
</svg>
